<svg xmlns="http://www.w3.org/2000/svg" version="1.1" xmlns:xlink="http://www.w3.org/1999/xlink" xmlns:svgjs="http://svgjs.dev/svgjs" width="128" height="128" viewBox="0 0 128 128"><g transform="matrix(0.5819209039548022,0,0,0.5819209039548022,26.712089336985137,12.333870967741937)"><svg viewBox="0 0 112 155" data-background-color="#ffffff" preserveAspectRatio="xMidYMid meet" height="177" width="128" xmlns="http://www.w3.org/2000/svg" xmlns:xlink="http://www.w3.org/1999/xlink"><g id="tight-bounds" transform="matrix(1,0,0,1,0.0676229508196684,0.25)"><svg viewBox="0 0 111.86475409836065 154.5" height="154.5" width="111.86475409836065"><g><svg viewBox="0 0 111.86475409836065 154.5" height="154.5" width="111.86475409836065"><g><svg viewBox="0 0 111.86475409836065 154.5" height="154.5" width="111.86475409836065"><g id="textblocktransform"><svg viewBox="0 0 111.86475409836065 154.5" height="154.5" width="111.86475409836065" id="textblock"><g><svg viewBox="0 0 111.86475409836065 154.5" height="154.5" width="111.86475409836065"><g transform="matrix(1,0,0,1,0,0)"><svg width="111.86475409836065" viewBox="1.3 -36.6 26.5 36.6" height="154.5" data-palette-color="#4a596d"><path d="M27.8-22.45L27.8-22.45Q27.8-20.15 27.38-17.57 26.95-15 26.08-12.5 25.2-10 23.9-7.75 22.6-5.5 20.83-3.78 19.05-2.05 16.8-1.03 14.55 0 11.85 0L11.85 0Q9.35 0 7.53-1.48 5.7-2.95 4.58-5.35 3.45-7.75 3.03-10.85 2.6-13.95 2.9-17.15 3.2-20.35 4.17-23.45 5.15-26.55 6.85-28.95 8.55-31.35 10.95-32.83 13.35-34.3 16.45-34.3L16.45-34.3Q18.9-34.3 20.55-33.2 22.2-32.1 23.23-30.4 24.25-28.7 24.7-26.63 25.15-24.55 25.15-22.6L25.15-22.6Q25.15-20.25 24.75-18.03 24.35-15.8 23.35-13.7L23.35-13.7Q23.05-13 23.03-13.23 23-13.45 23.1-13.9L23.1-13.9Q23.45-15.7 23.73-17.48 24-19.25 24-21.1L24-21.1Q24-22.85 23.65-24.9 23.3-26.95 22.45-28.7 21.6-30.45 20.1-31.63 18.6-32.8 16.3-32.8L16.3-32.8Q14.35-32.8 12.65-32.05 10.95-31.3 9.58-30.05 8.2-28.8 7.15-27.13 6.1-25.45 5.35-23.65L5.35-23.65Q4.75-22.15 4.35-19.88 3.95-17.6 3.9-15.1 3.85-12.6 4.2-10.05 4.55-7.5 5.5-5.5 6.45-3.5 8-2.23 9.55-0.95 11.9-0.95L11.9-0.95Q14.35-0.95 16.55-2.33 18.75-3.7 20.53-5.78 22.3-7.85 23.55-10.23 24.8-12.6 25.35-14.65L25.35-14.65Q25.85-16.45 26.13-18.68 26.4-20.9 26.28-23.18 26.15-25.45 25.58-27.6 25-29.75 23.85-31.43 22.7-33.1 20.93-34.13 19.15-35.15 16.6-35.15L16.6-35.15Q12.8-35.15 10.05-33.25 7.3-31.35 5.53-28.45 3.75-25.55 2.9-22.05 2.05-18.55 2.05-15.35L2.05-15.35Q2.05-13.85 2.25-12.33 2.45-10.8 2.55-9.8L2.55-9.8Q2.6-9.4 2.48-9.38 2.35-9.35 2.2-9.75L2.2-9.75Q2-10.4 1.85-11.28 1.7-12.15 1.58-13.13 1.45-14.1 1.38-15.08 1.3-16.05 1.3-16.9L1.3-16.9Q1.3-20.4 2.23-23.93 3.15-27.45 5.05-30.25 6.95-33.05 9.88-34.83 12.8-36.6 16.8-36.6L16.8-36.6Q19.8-36.6 21.9-35.25 24-33.9 25.33-31.83 26.65-29.75 27.23-27.25 27.8-24.75 27.8-22.45ZM23.1-22L23.1-22Q23.1-19.85 22.6-17.48 22.1-15.1 21.13-12.83 20.15-10.55 18.75-8.58 17.35-6.6 15.55-5.2L15.55-5.2Q14.7-4.55 13.73-4.1 12.75-3.65 11.6-3.65L11.6-3.65Q10.6-3.65 9.93-4.08 9.25-4.5 8.75-5.25L8.75-5.25Q8.35-5.8 8.5-5.8 8.65-5.8 9.05-5.4L9.05-5.4Q9.5-5 9.95-4.7 10.4-4.4 11.15-4.4L11.15-4.4Q12.55-4.4 13.83-5.38 15.1-6.35 15.95-7.35L15.95-7.35Q17.25-8.75 18.25-10.48 19.25-12.2 19.93-14.08 20.6-15.95 20.95-17.88 21.3-19.8 21.3-21.7L21.3-21.7Q21.3-22.95 21.08-24.45 20.85-25.95 20.23-27.28 19.6-28.6 18.53-29.5 17.45-30.4 15.75-30.4L15.75-30.4Q13.9-30.4 12.45-29.6 11-28.8 9.85-27.58 8.7-26.35 7.78-24.83 6.85-23.3 6.05-21.85L6.05-21.85Q5.9-21.55 5.83-21.5 5.75-21.45 5.75-21.55L5.75-21.55Q5.7-21.65 5.75-21.85L5.75-21.85Q6.3-23.7 7.25-25.5 8.2-27.3 9.53-28.7 10.85-30.1 12.5-30.98 14.15-31.85 16.1-31.85L16.1-31.85Q17.95-31.85 19.3-30.85 20.65-29.85 21.48-28.38 22.3-26.9 22.7-25.18 23.1-23.45 23.1-22ZM14.05-2.45L14.05-2.45Q12.9-1.85 11.6-1.85L11.6-1.85Q9.8-1.85 8.5-2.85 7.2-3.85 6.33-5.3 5.45-6.75 5.05-8.45 4.65-10.15 4.65-11.6L4.65-11.6Q4.65-11.9 4.7-12.5 4.75-13.1 4.83-13.68 4.9-14.25 5.03-14.7 5.15-15.15 5.35-15.15L5.35-15.15Q5.55-15.15 5.53-14.38 5.5-13.6 5.6-12.2L5.6-12.2Q5.65-11.1 6.05-9.45 6.45-7.8 7.2-6.28 7.95-4.75 9.05-3.65 10.15-2.55 11.6-2.55L11.6-2.55Q12.85-2.55 13.85-2.75L13.85-2.75Q14.35-2.85 14.6-2.85 14.85-2.85 14.05-2.45Z" opacity="1" transform="matrix(1,0,0,1,0,0)" fill="#000000" class="wordmark-text-0" data-fill-palette-color="primary" id="text-0"></path></svg></g></svg></g></svg></g></svg></g></svg></g><defs></defs></svg><rect width="111.86475409836065" height="154.5" fill="none" stroke="none" visibility="hidden"></rect></g></svg></g></svg>